HIERARCHY
ROOT hip
{
  OFFSET 5.51535 103.731 -2.80141
  CHANNELS 6 Xposition Yposition Zposition Zrotation Xrotation Yrotation
  JOINT abdomen
  {
    OFFSET 0 -1.186 -1.5018
    CHANNELS 6 Xposition Yposition Zposition Zrotation Xrotation Yrotation
    JOINT abdomen2
    {
      OFFSET 0 9.964 0.2134
      CHANNELS 6 Xposition Yposition Zposition Zrotation Xrotation Yrotation
      JOINT chest
      {
        OFFSET 0 13.134 -3.2573
        CHANNELS 6 Xposition Yposition Zposition Zrotation Xrotation Yrotation
        JOINT neck
        {
          OFFSET 0 20.686 -1.6905
          CHANNELS 6 Xposition Yposition Zposition Zrotation Xrotation Yrotation
          JOINT head
          {
            OFFSET 0 7.23801 -0.1237
            CHANNELS 6 Xposition Yposition Zposition Zrotation Xrotation Yrotation
            End Site
            {
              OFFSET 0 0 0
            }
          }
        }
        JOINT lCollar
        {
          OFFSET 1.7069 20.075 5.0056
          CHANNELS 6 Xposition Yposition Zposition Zrotation Xrotation Yrotation
          JOINT lShldr
          {
            OFFSET 13.6458 -0.0470195 -4.849
            CHANNELS 6 Xposition Yposition Zposition Zrotation Xrotation Yrotation
            JOINT lForeArm
            {
              OFFSET 28.3255 -0.97589 2.2888
              CHANNELS 6 Xposition Yposition Zposition Zrotation Xrotation Yrotation
              JOINT lHand
              {
                OFFSET 22.1583 -0.529998 10.8316
                CHANNELS 6 Xposition Yposition Zposition Zrotation Xrotation Yrotation
                JOINT lThumb1
                {
                  OFFSET 0.786 0.111997 2.5817
                  CHANNELS 6 Xposition Yposition Zposition Zrotation Xrotation Yrotation
                  JOINT lThumb2
                  {
                    OFFSET 0.360097 -0.877999 4.2331
                    CHANNELS 6 Xposition Yposition Zposition Zrotation Xrotation Yrotation
                    JOINT lThumb2_End
                    {
                      OFFSET 1.8127 -1.21601 2.2227
                      CHANNELS 6 Xposition Yposition Zposition Zrotation Xrotation Yrotation
                      End Site
                      {
                        OFFSET 0.0180981 -0.012195 0.0222007
                      }
                    }
                  }
                }
                JOINT lCarpal1
                {
                  OFFSET 0.9571 1.114 1.7695
                  CHANNELS 6 Xposition Yposition Zposition Zrotation Xrotation Yrotation
                  JOINT lIndex1
                  {
                    OFFSET 4.12461 0.486992 4.1451
                    CHANNELS 6 Xposition Yposition Zposition Zrotation Xrotation Yrotation
                    JOINT lIndex2
                    {
                      OFFSET 3.4052 -1.45401 2.7682
                      CHANNELS 6 Xposition Yposition Zposition Zrotation Xrotation Yrotation
                      JOINT lIndex2_End
                      {
                        OFFSET 1.45309 -1.79499 1.2713
                        CHANNELS 6 Xposition Yposition Zposition Zrotation Xrotation Yrotation
                        End Site
                        {
                          OFFSET 0.0144979 -0.0179083 0.0126995
                        }
                      }
                    }
                  }
                  JOINT lMid1
                  {
                    OFFSET 5.6954 0.209987 2.1184
                    CHANNELS 6 Xposition Yposition Zposition Zrotation Xrotation Yrotation
                    JOINT lMid2
                    {
                      OFFSET 3.9766 -1.53999 2.3863
                      CHANNELS 6 Xposition Yposition Zposition Zrotation Xrotation Yrotation
                      JOINT lMid2_End
                      {
                        OFFSET 1.4042 -1.926 1.125
                        CHANNELS 6 Xposition Yposition Zposition Zrotation Xrotation Yrotation
                        End Site
                        {
                          OFFSET 0.013999 -0.0193044 0.011301
                        }
                      }
                    }
                  }
                }
                JOINT lCarpal2
                {
                  OFFSET 2.0956 0.66 -0.3894
                  CHANNELS 6 Xposition Yposition Zposition Zrotation Xrotation Yrotation
                  JOINT lRing1
                  {
                    OFFSET 5.0395 -0.090013 2.4971
                    CHANNELS 6 Xposition Yposition Zposition Zrotation Xrotation Yrotation
                    JOINT lRing2
                    {
                      OFFSET 3.7921 -1.55199 1.4806
                      CHANNELS 6 Xposition Yposition Zposition Zrotation Xrotation Yrotation
                      JOINT lRing2_End
                      {
                        OFFSET 1.4655 -1.808 0.9609
                        CHANNELS 6 Xposition Yposition Zposition Zrotation Xrotation Yrotation
                        End Site
                        {
                          OFFSET 0.0147015 -0.0181014 0.00959957
                        }
                      }
                    }
                  }
                  JOINT lPinky1
                  {
                    OFFSET 4.9141 -1.269 0.3591
                    CHANNELS 6 Xposition Yposition Zposition Zrotation Xrotation Yrotation
                    JOINT lPinky2
                    {
                      OFFSET 3.1477 -1.685 0.8462
                      CHANNELS 6 Xposition Yposition Zposition Zrotation Xrotation Yrotation
                      JOINT lPinky2_End
                      {
                        OFFSET 0.805498 -1.58501 0.795499
                        CHANNELS 6 Xposition Yposition Zposition Zrotation Xrotation Yrotation
                        End Site
                        {
                          OFFSET 0.00809703 -0.0157944 0.00799848
                        }
                      }
                    }
                  }
                }
              }
            }
          }
        }
        JOINT rCollar
        {
          OFFSET -1.7069 20.075 5.0056
          CHANNELS 6 Xposition Yposition Zposition Zrotation Xrotation Yrotation
          JOINT rShldr
          {
            OFFSET -13.6458 -0.0470107 -4.849
            CHANNELS 6 Xposition Yposition Zposition Zrotation Xrotation Yrotation
            JOINT rForeArm
            {
              OFFSET -28.3255 -0.975895 2.2888
              CHANNELS 6 Xposition Yposition Zposition Zrotation Xrotation Yrotation
              JOINT rHand
              {
                OFFSET -22.1583 -0.530007 10.8316
                CHANNELS 6 Xposition Yposition Zposition Zrotation Xrotation Yrotation
                JOINT rThumb1
                {
                  OFFSET -0.785997 0.112005 2.5817
                  CHANNELS 6 Xposition Yposition Zposition Zrotation Xrotation Yrotation
                  JOINT rThumb2
                  {
                    OFFSET -0.360106 -0.877994 4.2331
                    CHANNELS 6 Xposition Yposition Zposition Zrotation Xrotation Yrotation
                    JOINT rThumb2_End
                    {
                      OFFSET -1.8127 -1.216 2.2227
                      CHANNELS 6 Xposition Yposition Zposition Zrotation Xrotation Yrotation
                      End Site
                      {
                        OFFSET -0.0180972 -0.0121973 0.0222005
                      }
                    }
                  }
                }
                JOINT rCarpal1
                {
                  OFFSET -0.9571 1.114 1.7695
                  CHANNELS 6 Xposition Yposition Zposition Zrotation Xrotation Yrotation
                  JOINT rIndex1
                  {
                    OFFSET -4.1246 0.487011 4.1451
                    CHANNELS 6 Xposition Yposition Zposition Zrotation Xrotation Yrotation
                    JOINT rIndex2
                    {
                      OFFSET -3.4052 -1.45401 2.7682
                      CHANNELS 6 Xposition Yposition Zposition Zrotation Xrotation Yrotation
                      JOINT rIndex2_End
                      {
                        OFFSET -1.4531 -1.795 1.2713
                        CHANNELS 6 Xposition Yposition Zposition Zrotation Xrotation Yrotation
                        End Site
                        {
                          OFFSET -0.0145077 -0.0180048 0.0127017
                        }
                      }
                    }
                  }
                  JOINT rMid1
                  {
                    OFFSET -5.6954 0.210002 2.1184
                    CHANNELS 6 Xposition Yposition Zposition Zrotation Xrotation Yrotation
                    JOINT rMid2
                    {
                      OFFSET -3.9766 -1.54 2.3863
                      CHANNELS 6 Xposition Yposition Zposition Zrotation Xrotation Yrotation
                      JOINT rMid2_End
                      {
                        OFFSET -1.4042 -1.926 1.125
                        CHANNELS 6 Xposition Yposition Zposition Zrotation Xrotation Yrotation
                        End Site
                        {
                          OFFSET -0.0139948 -0.0192916 0.0112994
                        }
                      }
                    }
                  }
                }
                JOINT rCarpal2
                {
                  OFFSET -2.0956 0.66 -0.3894
                  CHANNELS 6 Xposition Yposition Zposition Zrotation Xrotation Yrotation
                  JOINT rRing1
                  {
                    OFFSET -5.03951 -0.0899879 2.4971
                    CHANNELS 6 Xposition Yposition Zposition Zrotation Xrotation Yrotation
                    JOINT rRing2
                    {
                      OFFSET -3.7921 -1.55201 1.4806
                      CHANNELS 6 Xposition Yposition Zposition Zrotation Xrotation Yrotation
                      JOINT rRing2_End
                      {
                        OFFSET -1.4655 -1.808 0.960901
                        CHANNELS 6 Xposition Yposition Zposition Zrotation Xrotation Yrotation
                        End Site
                        {
                          OFFSET -0.0146934 -0.0180999 0.00959832
                        }
                      }
                    }
                  }
                  JOINT rPinky1
                  {
                    OFFSET -4.91411 -1.26899 0.359202
                    CHANNELS 6 Xposition Yposition Zposition Zrotation Xrotation Yrotation
                    JOINT rPinky2
                    {
                      OFFSET -3.14769 -1.68501 0.846199
                      CHANNELS 6 Xposition Yposition Zposition Zrotation Xrotation Yrotation
                      JOINT rPinky2_End
                      {
                        OFFSET -0.805498 -1.585 0.7955
                        CHANNELS 6 Xposition Yposition Zposition Zrotation Xrotation Yrotation
                        End Site
                        {
                          OFFSET -0.00810035 -0.0158035 0.00800029
                        }
                      }
                    }
                  }
                }
              }
            }
          }
        }
      }
    }
  }
  JOINT lThigh
  {
    OFFSET 8.367 -8.2066 0.5982
    CHANNELS 6 Xposition Yposition Zposition Zrotation Xrotation Yrotation
    JOINT lShin
    {
      OFFSET 2.1923 -43.463 -0.4932
      CHANNELS 6 Xposition Yposition Zposition Zrotation Xrotation Yrotation
      JOINT lFoot
      {
        OFFSET 0.733301 -45.8593 -2.6451
        CHANNELS 6 Xposition Yposition Zposition Zrotation Xrotation Yrotation
        End Site
        {
          OFFSET 2.6618 -4.2699 12.3931
        }
      }
    }
  }
  JOINT rThigh
  {
    OFFSET -8.367 -8.2066 0.5982
    CHANNELS 6 Xposition Yposition Zposition Zrotation Xrotation Yrotation
    JOINT rShin
    {
      OFFSET -2.1923 -43.463 -0.4931
      CHANNELS 6 Xposition Yposition Zposition Zrotation Xrotation Yrotation
      JOINT rFoot
      {
        OFFSET -0.733299 -45.8593 -2.6451
        CHANNELS 6 Xposition Yposition Zposition Zrotation Xrotation Yrotation
        End Site
        {
          OFFSET -2.6618 -4.2699 12.3931
        }
      }
    }
  }
}
MOTION
Frames:	4
Frame Time:	0.0333333
1.70889 103.644 -5.49255 -6.31219 -5.81447 13.0718 9.47145e-007 -1.186 -1.5018 -0.885117 3.02164 -0.299627 -4.84559e-007 9.964 0.2134 -1.75802 6.04752 -0.553536 -3.94772e-007 13.134 -3.2573 -1.75802 6.04752 -0.553533 -3.29065e-006 20.686 -1.6905 -0.490469 0.272602 -12.2273 -2.63167e-006 7.23801 -0.123701 19.2895 3.72363 -6.64106 1.7069 20.075 5.0056 28.6545 -1.64006 1.31337 13.6458 -0.0470069 -4.849 -94.6483 15.8861 4.10108 28.3255 -0.975892 2.2888 -6.07018 11.8782 1.51968 22.1583 -0.529986 10.8316 22.9771 -10.4178 0.70874 0.786002 0.111998 2.5817 4.77845 2.76433 13.6942 0.3601 -0.877999 4.2331 -3.7222 -0.224364 -6.80072 1.8127 -1.21601 2.2227 -0.00630669 -0.000755406 -0.0116069 0.9571 1.114 1.7695 -1.07344e-014 0 -1.59028e-015 4.12461 0.486992 4.1451 -0.632715 5.55866 7.43403 3.4052 -1.45401 2.7682 6.32166 -2.96873 -2.4492 1.4531 -1.79499 1.2713 0.994015 -0.445009 -0.403375 5.6954 0.209987 2.1184 3.4272 1.75386 -0.517594 3.9766 -1.53999 2.3863 2.42379 -1.22035 -0.986092 1.4042 -1.926 1.125 3.11161 -1.57576 -1.25827 2.0956 0.66 -0.3894 -1.07344e-014 0 -1.59028e-015 5.0395 -0.0900105 2.4971 3.48945 -2.59024 -2.03626 3.7921 -1.55199 1.4806 2.58908 -1.41522 -1.20483 1.4655 -1.808 0.9609 3.26953 -1.79849 -1.51331 4.9141 -1.269 0.359101 2.41767 -3.21467 -2.87624 3.1477 -1.685 0.846201 4.47369 -2.65925 -2.01269 0.805495 -1.585 0.795499 3.03716 -1.78258 -1.38439 -1.7069 20.075 5.0056 -17.9137 -3.54896 -6.91887 -13.6458 -0.0470172 -4.84901 79.7308 0.641624 -21.8349 -28.3255 -0.975891 2.2888 -4.41702 29.6733 8.54192 -22.1583 -0.530012 10.8316 0.371674 -15.6708 -2.17965 -0.785997 0.112006 2.5817 -2.2863 6.25249 -16.4327 -0.360106 -0.877992 4.2331 1.47691 -1.18401 4.36334 -1.8127 -1.216 2.2227 -0.884433 0.803761 -2.73785 -0.9571 1.114 1.7695 -3.18055e-015 -9.54166e-015 -0 -4.12461 0.48701 4.1451 8.05539 7.60763 -7.68295 -3.4052 -1.45401 2.7682 -1.71919 -0.577942 0.233021 -1.4531 -1.795 1.2713 4.20145 1.37735 -0.639643 -5.6954 0.210002 2.1184 1.98341 4.04865 -0.718038 -3.9766 -1.54 2.3863 2.53571 0.945545 -0.369023 -1.4042 -1.926 1.125 1.76723 0.661014 -0.252873 -2.0956 0.66 -0.3894 -3.18055e-015 -9.54166e-015 -0 -5.03951 -0.0899883 2.4971 1.0202 -0.201284 0.124989 -3.7921 -1.552 1.4806 2.21298 0.909605 -0.416498 -1.4655 -1.808 0.960902 1.44005 0.594254 -0.26688 -4.91411 -1.26899 0.359201 1.76644 -0.884184 1.11404 -3.14769 -1.68501 0.846197 0.0075645 0.00337536 -0.0011915 -0.8055 -1.58499 0.795499 1.64773 0.730513 -0.28684 8.367 -8.20659 0.5982 8.73493 -5.95625 -0.499621 2.1923 -43.463 -0.493197 -1.92514 13.7684 -7.3922 0.733301 -45.8593 -2.6451 1.02132 -3.52351 -5.48679 -8.36701 -8.2066 0.598201 8.4708 7.60213 -1.72304 -2.1923 -43.4631 -0.493101 -3.65095 -2.73894 -6.83093 -0.733302 -45.8593 -2.6451 2.82457 -0.36132 -5.3813 
1.72533 103.638 -5.49028 -6.31071 -5.8421 13.2684 3.36735e-008 -1.186 -1.5018 -0.886637 3.00956 -0.297627 3.87641e-007 9.964 0.2134 -1.76126 6.0234 -0.549674 -4.70047e-007 13.134 -3.2573 -1.76126 6.0234 -0.549674 -1.41322e-006 20.686 -1.6905 -0.491467 0.314957 -12.2506 1.1634e-005 7.238 -0.123695 19.3799 3.83018 -6.63175 1.7069 20.075 5.0056 28.5324 -1.63829 1.32639 13.6458 -0.0470143 -4.849 -94.6412 15.9007 4.05046 28.3255 -0.97589 2.2888 -6.09859 11.8723 1.51788 22.1583 -0.529983 10.8316 22.9354 -10.0268 0.277623 0.786007 0.111995 2.5817 4.65355 2.70138 13.5322 0.360099 -0.878 4.2331 -3.52699 -0.223617 -6.44475 1.8127 -1.21601 2.2227 0.175392 0.0215845 0.321695 0.9571 1.114 1.7695 -1.98785e-015 4.77083e-015 4.77083e-015 4.1246 0.486992 4.1451 -1.58426 5.88438 7.89231 3.4052 -1.454 2.7682 5.18995 -2.41356 -2.03151 1.4531 -1.79499 1.2713 0.0840762 -0.0373366 -0.0344427 5.69541 0.209986 2.1184 2.53438 2.19958 -0.114881 3.9766 -1.53999 2.3863 1.30101 -0.648654 -0.534618 1.4042 -1.926 1.125 2.22513 -1.1182 -0.907194 2.0956 0.66 -0.3894 -1.98785e-015 4.77083e-015 4.77083e-015 5.0395 -0.0900141 2.4971 2.63757 -2.1013 -1.65939 3.7921 -1.55199 1.4806 1.5044 -0.813803 -0.706121 1.4655 -1.808 0.9609 2.41542 -1.33601 -1.13294 4.9141 -1.269 0.3591 1.58389 -2.68713 -2.51796 3.1477 -1.685 0.846201 3.41069 -2.0085 -1.5497 0.805501 -1.58501 0.7955 2.19193 -1.2927 -1.01228 -1.7069 20.075 5.0056 -17.9272 -3.5626 -7.05385 -13.6458 -0.0470175 -4.849 79.5603 0.610932 -21.7498 -28.3255 -0.975911 2.2888 -4.43966 29.5714 8.59522 -22.1583 -0.530009 10.8316 0.432754 -16.1359 -1.99109 -0.786001 0.112004 2.5817 -2.2097 6.15095 -16.2622 -0.360103 -0.877992 4.2331 1.34716 -1.08725 3.98914 -1.8127 -1.216 2.2227 -0.993999 0.908896 -3.08485 -0.9571 1.114 1.7695 -7.15625e-015 -3.18055e-015 1.59028e-015 -4.12461 0.487011 4.1451 9.09388 7.84955 -7.9532 -3.4052 -1.45401 2.7682 -0.456067 -0.152569 0.0635857 -1.4531 -1.795 1.2713 5.2068 1.69885 -0.807153 -5.6954 0.210004 2.1184 2.97941 4.40644 -0.927232 -3.9766 -1.54 2.3863 3.78785 1.40528 -0.566152 -1.4042 -1.92599 1.125 2.75747 1.02741 -0.403251 -2.0956 0.66 -0.3894 -7.15625e-015 -3.18055e-015 1.59028e-015 -5.03951 -0.0899856 2.4971 1.98974 0.20156 -0.0502053 -3.7921 -1.552 1.4806 3.4428 1.40666 -0.662275 -1.4655 -1.808 0.960899 2.41237 0.99081 -0.455308 -4.91411 -1.26899 0.359202 2.71959 -0.4391 0.96338 -3.1477 -1.68501 0.8462 1.22229 0.542758 -0.210607 -0.805497 -1.58499 0.795499 2.61152 1.15302 -0.463914 8.36701 -8.20659 0.598202 8.72478 -6.00471 -0.736143 2.1923 -43.463 -0.493201 -1.97859 13.8249 -7.60863 0.733302 -45.8593 -2.6451 1.07535 -3.52614 -5.82871 -8.36702 -8.2066 0.5982 8.45306 7.67342 -1.35309 -2.1923 -43.463 -0.493101 -3.48307 -2.6762 -6.11727 -0.733301 -45.8593 -2.6451 2.89697 -0.554606 -5.33768 
1.75038 103.635 -5.48576 -6.30516 -5.85728 13.5271 7.42296e-007 -1.186 -1.5018 -0.885619 2.99549 -0.315046 -4.89773e-007 9.964 0.2134 -1.75832 5.99554 -0.584839 3.02079e-007 13.134 -3.2573 -1.75832 5.99554 -0.584832 8.4774e-006 20.6861 -1.6905 -0.49694 0.297465 -12.3853 8.71101e-006 7.238 -0.123695 19.4892 3.91212 -6.69995 1.7069 20.075 5.0056 28.3376 -1.63565 1.34305 13.6458 -0.0470037 -4.849 -94.6712 15.8658 4.20479 28.3255 -0.975888 2.2888 -6.14182 11.9649 1.50474 22.1583 -0.529985 10.8316 22.8376 -9.88311 0.0708957 0.786006 0.111995 2.5817 4.3352 2.54966 13.095 0.3601 -0.878 4.2331 -3.03919 -0.216373 -5.55477 1.81269 -1.21601 2.2227 0.629212 0.0819706 1.15456 0.9571 1.114 1.7695 -3.97569e-016 0 -0 4.12461 0.48699 4.1451 -3.97847 6.6513 9.068 3.4052 -1.45401 2.7682 2.34446 -1.06273 -0.940546 1.4531 -1.79499 1.2713 -2.20237 0.955624 0.91589 5.6954 0.209987 2.1184 0.287401 3.28575 0.922601 3.9766 -1.53999 2.3863 -1.5255 0.740751 0.642418 1.4042 -1.926 1.125 -0.00291772 0.00144699 0.00105877 2.0956 0.66 -0.3894 -3.97569e-016 0 -0 5.0395 -0.0900119 2.4971 0.493537 -0.904814 -0.687916 3.7921 -1.55199 1.4806 -1.2297 0.647198 0.589641 1.4655 -1.808 0.9609 0.260383 -0.139045 -0.123399 4.9141 -1.269 0.359101 -0.516477 -1.39313 -1.59333 3.1477 -1.685 0.8462 0.731539 -0.420302 -0.340434 0.8055 -1.58501 0.7955 0.0678688 -0.0679745 -0.0417461 -1.7069 20.075 5.0056 -17.9085 -3.58037 -7.23402 -13.6458 -0.0470098 -4.849 79.4627 0.561743 -21.7843 -28.3255 -0.975878 2.2888 -4.4046 29.4247 8.89044 -22.1583 -0.530011 10.8316 0.266397 -16.1398 -1.93036 -0.786 0.112003 2.5817 -2.02102 5.9027 -15.8012 -0.360105 -0.877995 4.2331 1.02558 -0.841629 3.05473 -1.8127 -1.216 2.2227 -1.26517 1.17459 -3.95164 -0.9571 1.114 1.7695 1.59028e-015 3.18055e-015 -0 -4.12461 0.487011 4.1451 11.6995 8.41931 -8.65431 -3.4052 -1.45401 2.7682 2.70747 0.893558 -0.400716 -1.4531 -1.795 1.2713 7.72519 2.48925 -1.2505 -5.69541 0.210003 2.1184 5.47744 5.28461 -1.47772 -3.9766 -1.54 2.3863 6.92647 2.53472 -1.1029 -1.4042 -1.926 1.125 5.23815 1.9314 -0.806757 -2.0956 0.66 -0.3894 1.59028e-015 3.18055e-015 -0 -5.03951 -0.089987 2.4971 4.42015 1.19413 -0.515828 -3.7921 -1.55201 1.4806 6.52834 2.62534 -1.32333 -1.4655 -1.808 0.960901 4.84965 1.96771 -0.95561 -4.91411 -1.26899 0.359201 5.10936 0.660127 0.558642 -3.14769 -1.68501 0.846198 4.26877 1.87061 -0.784027 -0.805497 -1.58499 0.795499 5.02253 2.16216 -0.923403 8.36701 -8.2066 0.598201 8.64984 -6.08422 -1.25602 2.1923 -43.463 -0.493199 -1.97437 13.8483 -7.59076 0.733302 -45.8593 -2.6451 1.06469 -3.49982 -6.27447 -8.36701 -8.20662 0.5982 8.43993 7.72653 -0.813262 -2.1923 -43.463 -0.493098 -3.32431 -2.68552 -5.43811 -0.7333 -45.8593 -2.6451 2.97003 -0.678546 -5.38462 
1.77672 103.625 -5.48705 -6.3084 -5.84943 13.7906 -1.45614e-006 -1.18599 -1.5018 -0.884069 2.97689 -0.329703 2.17813e-007 9.964 0.2134 -1.7545 5.9585 -0.614495 -1.74573e-009 13.134 -3.2573 -1.7545 5.95851 -0.614489 3.66281e-005 20.686 -1.69048 -0.505401 0.200842 -12.6015 1.18692e-005 7.238 -0.123695 19.5365 3.96227 -6.72889 1.7069 20.075 5.0056 28.1682 -1.6335 1.3566 13.6458 -0.04701 -4.849 -94.7679 15.7775 4.53771 28.3255 -0.97588 2.2888 -6.19129 12.0493 1.35711 22.1583 -0.529982 10.8316 22.6312 -10.1531 0.419948 0.786001 0.111998 2.5817 3.90566 2.36328 12.4565 0.360097 -0.877997 4.2331 -2.40527 -0.19566 -4.39795 1.81269 -1.21601 2.2227 1.21771 0.170388 2.23654 0.9571 1.114 1.7695 3.97569e-016 1.59028e-015 1.59028e-015 4.12461 0.48699 4.1451 -7.12657 7.51516 10.6656 3.4052 -1.454 2.7682 -1.39178 0.608946 0.575427 1.4531 -1.79499 1.2713 -5.20044 2.18815 2.20989 5.6954 0.209986 2.1184 -2.66687 4.6352 2.33577 3.9766 -1.53999 2.3863 -5.24447 2.45661 2.27364 1.4042 -1.926 1.125 -2.92623 1.40241 1.24597 2.0956 0.66 -0.3894 3.97569e-016 1.59028e-015 1.59028e-015 5.0395 -0.0900135 2.4971 -2.32657 0.592967 0.635488 3.7921 -1.55199 1.4806 -4.83514 2.45043 2.37713 1.4655 -1.808 0.960901 -2.56977 1.33414 1.24392 4.9141 -1.269 0.359101 -3.28403 0.233584 -0.332569 3.1477 -1.685 0.846201 -2.80157 1.55606 1.34073 0.805498 -1.58501 0.795499 -2.73655 1.50655 1.30393 -1.7069 20.075 5.0056 -17.8306 -3.60441 -7.4838 -13.6458 -0.0470172 -4.849 79.4376 0.496498 -21.926 -28.3255 -0.975896 2.28881 -4.36371 29.2875 9.14977 -22.1583 -0.530015 10.8316 0.569497 -16.6629 -1.75246 -0.785998 0.112006 2.5817 -1.77416 5.57736 -15.1299 -0.360106 -0.877996 4.2331 0.613667 -0.51455 1.84213 -1.8127 -1.216 2.2227 -1.61163 1.5261 -5.07667 -0.9571 1.114 1.7695 -9.54166e-015 -6.36111e-015 3.18055e-015 -4.12461 0.487009 4.1451 15.1095 9.05335 -9.62656 -3.4052 -1.45401 2.7682 6.83497 2.21233 -1.08969 -1.4531 -1.795 1.2713 11.0108 3.48628 -1.8786 -5.69541 0.210001 2.1184 8.74314 6.38882 -2.25129 -3.9766 -1.54 2.3863 11.0276 3.95599 -1.89278 -1.4042 -1.926 1.125 8.47499 3.079 -1.38963 -2.0956 0.66 -0.3894 -9.54166e-015 -6.36111e-015 3.18055e-015 -5.03951 -0.0899868 2.4971 7.59553 2.45104 -1.17832 -3.7921 -1.552 1.4806 10.5661 4.15311 -2.28057 -1.4655 -1.808 0.9609 8.03352 3.20424 -1.66799 -4.9141 -1.26899 0.359203 8.23333 2.05745 -0.0242493 -3.14769 -1.68501 0.846197 8.25384 3.5478 -1.63462 -0.805501 -1.585 0.795501 8.18188 3.50296 -1.61154 8.36701 -8.20661 0.598201 8.53931 -6.24816 -1.97588 2.1923 -43.463 -0.493199 -1.92107 13.9237 -7.36509 0.733301 -45.8593 -2.6451 0.992191 -3.47922 -6.80989 -8.367 -8.2066 0.598201 8.44173 7.84412 -0.0394612 -2.1923 -43.4631 -0.4931 -3.17989 -2.75739 -4.78629 -0.7333 -45.8593 -2.6451 3.04489 -0.832359 -5.55218 
